# AST/ASF file generated using VICON BodyLanguage
# -----------------------------------------------
:version 1.10
:name VICON
:units
  mass 1.0
  length 0.45
  angle deg
:documentation
   .ast/.asf automatically generated from VICON data using
   VICON BodyBuilder and BodyLanguage model FoxedUp or BRILLIANT.MOD
:root
   order TX TY TZ RX RY RZ
   axis XYZ
   position 0 0 0  
   orientation 0 -0 0 
:bonedata
  begin
     id 1 
     name lhipjoint
     direction 0.500677 -0.737119 0.453848 
     length 2.34727 
     axis 0 -0 0  XYZ
  end
  begin
     id 2 
     name lfemur
     direction 0.34202 -0.939693 0  
     length 7.53653  
     axis 0 -0 20  XYZ
    dof rx ry rz
    limits (-160.0 20.0)
           (-70.0 70.0)
           (-60.0 70.0)
  end
  begin
     id 3 
     name ltibia
     direction 0.34202 -0.939693 0   
     length 6.85572   
     axis 0 -0 20   XYZ
    dof rx
    limits (-10.0 170.0)
  end
  begin
     id 4 
     name lfoot
     direction 0.155313 -0.426718 0.890949   
     length 2.18324   
     axis -90 -1.13533e-015 20   XYZ
    dof rx rz
    limits (-45.0 90.0)
           (-70.0 20.0)
  end
  begin
     id 5 
     name ltoes
     direction 1.53474e-011 -4.21647e-011 1   
     length 1.06748   
     axis -90 -1.13533e-015 20   XYZ
    dof rx
    limits (-90.0 20.0)
  end
  begin
     id 6 
     name rhipjoint
     direction -0.632471 -0.659587 0.406111   
     length 2.62319  
     axis 0 -0 0  XYZ 
  end
  begin
     id 7 
     name rfemur
     direction -0.34202 -0.939693 0   
     length 7.21735   
     axis 0 -0 -20   XYZ
    dof rx ry rz
    limits (-160.0 20.0)
           (-70.0 70.0)
           (-70.0 60.0)
  end
  begin
     id 8 
     name rtibia
     direction -0.34202 -0.939693 0   
     length 7.02558   
     axis 0 -0 -20   XYZ
    dof rx
    limits (-10.0 170.0)
 end
 begin
     id 9 
     name rfoot
     direction -0.16057 -0.441164 0.882945   
     length 2.10014  
     axis -90 1.13533e-015 -20   XYZ
    dof rx rz
    limits (-45.0 90.0)
           (-20.0 70.0)
  end
  begin
     id 10 
     name rtoes
     direction -1.53553e-011 -4.2192e-011 1   
     length 1.02554   
     axis -90 1.13533e-015 -20   XYZ
    dof rx
    limits (-90.0 20.0)
  end
  begin
     id 11 
     name lowerback
     direction 0.0401429 0.998861 -0.0258085   
     length 1.80848   
     axis 0 -0 0   XYZ
    dof rx ry rz
    limits (-20.0 45.0)
           (-30.0 30.0)
           (-30.0 30.0)
  end
  begin
     id 12 
     name upperback
     direction -0.0130978 0.999914 -0.000352645   
     length 1.8116   
     axis 0 -0 0   XYZ
    dof rx ry rz
    limits (-20.0 45.0)
           (-30.0 30.0)
           (-30.0 30.0)
  end
  begin
     id 13 
     name thorax
     direction -0.0300198 0.999453 0.0138573   
     length 1.81778   
     axis 0 -0 0   XYZ
    dof rx ry rz
    limits (-20.0 45.0)
           (-30.0 30.0)
           (-30.0 30.0)
  end
  begin
     id 14 
     name lowerneck
     direction -0.0401726 0.999191 -0.00173647   
     length 2.10594   
     axis 0 -0 0   XYZ
    dof rx ry rz
    limits (-20.0 45.0)
           (-30.0 30.0)
           (-30.0 30.0)
  end
  begin
     id 15 
     name upperneck
     direction 0.0119835 0.998501 0.0534085   
     length 2.07325   
     axis 0 -0 0   XYZ
    dof rx ry rz
    limits (-20.0 45.0)
           (-30.0 30.0)
           (-30.0 30.0)
  end
  begin
     id 16
     name head
     direction 0.00628309 0.999826 0.0175921  
     length 2.15096  
     axis 0 -0 0   XYZ
    dof rx ry rz
    limits (-20.0 45.0)
           (-30.0 30.0)
           (-30.0 30.0)
  end
  begin
     id 17 
     name lclavicle
     direction 0.895501 0.429681 -0.115981  
     length 4.18092  
     axis 0 -0 0   XYZ
    dof ry rz
    limits (-20.0 10.0)
           (0.0 20.0)
  end
  begin
     id 18 
     name lhumerus
     direction 1 -4.48961e-011 -3.38433e-028   
     length 5.77237   
     axis 180 -30 -90   XYZ
    dof rx ry rz
    limits (-60.0 90.0)
           (-90.0 90.0)
           (-90.0 90.0)
  end
  begin
     id 19
     name lradius
     direction 1 -4.4901e-011 1.11983e-026   
     length 2.91878   
     axis 180 -30 -90   XYZ
    dof rx
    limits (-10.0 170.0)
  end
  begin
     id 20
     name lwrist
     direction 1 -4.48934e-011 1.88176e-026   
     length 1.45939   
     axis -1.23311e-014 90 90   XYZ
    dof ry
    limits (-180.0 0.0)
 end
  begin
     id 21 
     name lhand
     direction 1 -4.4895e-011 3.76352e-026   
     length 1.06566   
     axis -2.40147e-014 90 90   XYZ
    dof rx rz
    limits (-90.0 90.0)
           (-45.0 45.0)
  end
  begin
     id 22 
     name lfingers
     direction 1 -4.49005e-011 7.52705e-026   
     length 0.859162   
     axis -4.80295e-014 90 90   XYZ
    dof rx
    limits (0.0 90.0)
  end
  begin
     id 23
     name lthumb
     direction 0.707107 -6.34885e-011 0.707107   
     length 1.23359   
     axis -90 45 -9.86935e-015   XYZ
    dof rx rz
    limits (-45.0 45.0)
           (-45.0 45.0)
  end
  begin
     id 24 
     name rclavicle
     direction -0.91006 0.40451 -0.0903492   
     length 4.23293  
     axis 0 -0 0   XYZ 
    dof ry rz
    limits (-10.0 20.0)
           (-20.0 0.0)
  end
  begin
     id 25 
     name rhumerus
     direction -1 -4.4897e-011 1.7415e-027  
     length 5.49854   
     axis 180 30 90   XYZ
    dof rx ry rz
    limits (-90.0 60.0)
           (-90.0 90.0)
           (-90.0 90.0)
  end
  begin
     id 26 
     name rradius
     direction -1 -4.48963e-011 1.21259e-026   
     length 3.1186   
     axis 180 30 90   XYZ
    dof rx
    limits (-10.0 170.0)
  end
  begin
     id 27 
     name rwrist
     direction -1 -4.48967e-011 1.88176e-026   
     length 1.5593   
     axis -1.23311e-014 -90 -90   XYZ
    dof ry
    limits (-180.0 0.0)
  end
  begin
     id 28
     name rhand
     direction -1 -4.4895e-011 3.76352e-026   
     length 0.71207   
     axis -2.40147e-014 -90 -90   XYZ
    dof rx rz
    limits (-90.0 90.0)
           (-45.0 45.0)
  end
  begin
     id 29
     name rfingers
     direction -1 -4.49005e-011 7.52705e-026   
     length 0.574089   
     axis -4.80295e-014 -90 -90   XYZ
    dof rx
    limits (0.0 90.0)
  end
  begin
     id 30
     name rthumb
     direction -0.707107 -6.34982e-011 0.707107   
     length 0.824281   
     axis -90 -45 9.86935e-015   XYZ
    dof rx rz
    limits (-45.0 45.0)
           (-45.0 45.0)
  end
:hierarchy
  begin
    root lhipjoint rhipjoint lowerback
    lhipjoint lfemur
    lfemur ltibia
    ltibia lfoot
    lfoot ltoes
    rhipjoint rfemur
    rfemur rtibia
    rtibia rfoot
    rfoot rtoes
    lowerback upperback
    upperback thorax
    thorax lowerneck lclavicle rclavicle
    lowerneck upperneck
    upperneck head
    lclavicle lhumerus
    lhumerus lradius
    lradius lwrist
    lwrist lhand lthumb
    lhand lfingers
    rclavicle rhumerus
    rhumerus rradius
    rradius rwrist
    rwrist rhand rthumb
    rhand rfingers
  end

#!OML:ASF C:\ViconDB\ViconDB\414\Spring2016\042216\male.ASF
:FULLY-SPECIFIED
:DEGREES
88
root -44.8686 16.9942 13.5445 -160.75 87.7629 -160.808
lowerback -2.93838 -1.29102 4.23203
upperback -0.17713 -1.84966 -0.575108
thorax 1.31232 -0.897107 -3.03643
lowerneck -0.293794 3.3041 -3.67017
upperneck -0.345967 4.41897 1.74184
head -0.18079 2.21337 1.13467
rclavicle 2.84127e-014 3.34828e-015
rhumerus -32.9707 11.4386 -98.7002
rradius 28.9691
rwrist 35.5789
rhand 23.7504 -18.0793
rfingers 7.12502
rthumb 48.0115 -40.2868
lclavicle 2.84127e-014 3.34828e-015
lhumerus -37.5325 7.22659 88.7119
lradius 33.2937
lwrist -23.7055
lhand -1.75994 5.13746
lfingers 7.12502
lthumb 23.9036 33.6698
rfemur -11.2674 0.656412 20.0439
rtibia 28.4577
rfoot -19.0679 2.05108
rtoes -6.19926
lfemur -8.968 -2.93775 -18.9504
ltibia 27.8772
lfoot -27.6527 10.5386
ltoes -15.6358
89
root -44.8656 16.9956 13.5485 -160.948 87.6916 -161.042
lowerback -3.01666 -1.28696 4.2271
upperback -0.16706 -1.84794 -0.565395
thorax 1.36719 -0.894815 -3.02601
lowerneck -0.468873 3.38363 -3.68725
upperneck -0.00196266 4.52993 1.78216
head -0.0506469 2.26713 1.15699
rclavicle -2.42162e-015 2.67117e-016
rhumerus -32.9095 10.3032 -98.3382
rradius 29.0072
rwrist 36.397
rhand 23.4691 -18.1021
rfingers 7.12502
rthumb 47.752 -40.4298
lclavicle -2.42162e-015 2.67117e-016
lhumerus -37.3798 7.83637 88.448
lradius 33.1013
lwrist -23.4268
lhand -1.29348 4.55564
lfingers 7.12502
lthumb 24.3509 33.0286
rfemur -11.2822 0.714972 20.0792
rtibia 28.4382
rfoot -19.0173 1.93932
rtoes -6.21415
lfemur -9.01925 -2.92378 -18.9184
ltibia 27.899
lfoot -27.6473 10.4893
ltoes -15.7382
90
root -44.8618 16.9979 13.5484 -160.149 87.5561 -160.353
lowerback -3.1755 -1.31235 4.33384
upperback -0.183286 -1.89245 -0.543199
thorax 1.43316 -0.914953 -3.06898
lowerneck -0.475484 3.35827 -3.48128
upperneck 0.0734262 4.49552 1.44803
head -0.0126607 2.24916 1.01867
rclavicle -7.76503e-016 -2.64632e-015
rhumerus -32.8679 9.2134 -97.9761
rradius 29.1008
rwrist 37.0518
rhand 23.0335 -18.3154
rfingers 7.12502
rthumb 47.3499 -40.826
lclavicle -7.76503e-016 -2.64632e-015
lhumerus -37.3382 8.20289 88.3346
lradius 33.1202
lwrist -22.7214
lhand -1.43992 5.03817
lfingers 7.12502
lthumb 24.2105 33.5299
rfemur -11.3789 0.553187 20.1491
rtibia 28.4234
rfoot -19.0027 1.96776
rtoes -6.34616
lfemur -9.15092 -2.94733 -18.8367
ltibia 27.9115
lfoot -27.6418 10.4213
ltoes -15.7547
91
root -44.8561 16.9983 13.5537 -160.867 87.4817 -161.073
lowerback -3.24294 -1.32965 4.30049
upperback -0.172164 -1.91755 -0.552635
thorax 1.48105 -0.926366 -3.06314
lowerneck -0.577038 3.41273 -3.42599
upperneck 0.313167 4.57109 1.40234
head 0.0779413 2.28546 0.999948
rclavicle 6.3068e-015 3.42127e-015
rhumerus -32.8609 8.16696 -97.6647
rradius 29.2033
rwrist 37.6042
rhand 22.8911 -18.4326
rfingers 7.12502
rthumb 47.2183 -41.0021
lclavicle 6.3068e-015 3.42127e-015
lhumerus -37.2915 8.3492 88.4112
lradius 33.3628
lwrist -21.483
lhand -2.05231 6.92844
lfingers 7.12502
lthumb 23.6232 35.4972
rfemur -11.3359 0.616325 20.159
rtibia 28.4182
rfoot -19.0415 1.85017
rtoes -6.27725
lfemur -9.14739 -2.85929 -18.8268
ltibia 27.918
lfoot -27.6846 10.2992
ltoes -15.6245
92
root -44.8507 16.9989 13.5539 -162.347 87.35 -162.616
lowerback -3.33351 -1.36838 4.30512
upperback -0.193711 -1.97269 -0.564222
thorax 1.50442 -0.953557 -3.08217
lowerneck -0.663633 3.4726 -3.3714
upperneck 0.554908 4.65389 1.30917
head 0.167655 2.32521 0.966669
rclavicle 4.93249e-015 -7.38299e-015
rhumerus -32.8698 7.01733 -97.3054
rradius 29.3827
rwrist 38.3091
rhand 22.5809 -18.8271
rfingers 7.12502
rthumb 46.9314 -41.5235
lclavicle 4.93249e-015 -7.38299e-015
lhumerus -37.2187 8.02467 88.862
lradius 34.2479
lwrist -18.6361
lhand -0.897426 10.9306
lfingers 7.12502
lthumb 24.7305 39.352
rfemur -11.369 0.446715 20.1222
rtibia 28.4196
rfoot -19.1432 1.86397
rtoes -6.18375
lfemur -9.22119 -2.89327 -18.8521
ltibia 27.919
lfoot -27.6845 10.2039
ltoes -15.6506
93
root -44.8439 16.9981 13.5561 -163.994 87.2697 -164.216
lowerback -3.35035 -1.37701 4.28305
upperback -0.163071 -1.98426 -0.614291
thorax 1.54341 -0.958053 -3.12298
lowerneck -0.976295 3.66582 -3.47114
upperneck 1.12058 4.92033 1.60623
head 0.376896 2.45638 1.09146
rclavicle 3.95581e-014 7.68427e-015
rhumerus -32.8656 5.94525 -97.0108
rradius 29.5051
rwrist 38.9018
rhand 21.8966 -19.1251
rfingers 7.12502
rthumb 46.2976 -42.0947
lclavicle 3.95581e-014 7.68427e-015
lhumerus -37.1712 8.34741 88.6978
lradius 34.1661
lwrist -17.9582
lhand -0.910738 11.4898
lfingers 7.12502
lthumb 24.7178 39.913
rfemur -11.2716 0.312302 20.058
rtibia 28.4244
rfoot -19.1458 1.92979
rtoes -6.16026
lfemur -9.15971 -2.82461 -18.9022
ltibia 27.9215
lfoot -27.7179 10.0941
ltoes -15.8062
94
root -44.8393 16.9965 13.559 -164.59 87.1696 -164.805
lowerback -3.32455 -1.39124 4.28165
upperback -0.187329 -2.00122 -0.62438
thorax 1.5022 -0.967876 -3.13202
lowerneck -1.09504 3.72961 -3.42612
upperneck 1.423 5.00899 1.584
head 0.489088 2.49918 1.08489
rclavicle 1.52893e-014 4.2366e-015
rhumerus -32.9412 4.84256 -96.6627
rradius 29.7384
rwrist 39.3844
rhand 21.4694 -19.5215
rfingers 7.12502
rthumb 45.9014 -42.657
lclavicle 1.52893e-014 4.2366e-015
lhumerus -37.1348 9.29265 88.22
lradius 33.7201
lwrist -18.1501
lhand -0.425135 11.2654
lfingers 7.12502
lthumb 25.1831 39.624
rfemur -11.232 0.250738 20.0596
rtibia 28.4251
rfoot -19.1882 1.91378
rtoes -6.20095
lfemur -9.15451 -2.76134 -18.8859
ltibia 27.926
lfoot -27.7771 9.92128
ltoes -15.7124
95
root -44.8363 16.9963 13.563 -163.857 87.073 -164.064
lowerback -3.3073 -1.41434 4.32299
upperback -0.190687 -2.03307 -0.595263
thorax 1.48598 -0.983976 -3.12583
lowerneck -1.21304 3.77906 -3.39893
upperneck 1.65289 5.08024 1.49105
head 0.58083 2.53307 1.05841
rclavicle -2.48221e-014 3.88873e-015
rhumerus -32.9601 3.91991 -96.3349
rradius 29.885
rwrist 39.7229
rhand 21.3378 -19.7348
rfingers 7.12502
rthumb 45.7792 -42.9207
lclavicle -2.48221e-014 3.88873e-015
lhumerus -37.1669 9.98088 87.8819
lradius 33.5037
lwrist -17.9404
lhand -0.0419445 11.4298
lfingers 7.12502
lthumb 25.5502 39.7363
rfemur -11.1906 0.309475 20.145
rtibia 28.4149
rfoot -19.2276 1.78028
rtoes -6.05711
lfemur -9.1587 -2.618 -18.786
ltibia 27.9399
lfoot -27.8082 9.67267
ltoes -15.6627
96
root -44.8351 16.9941 13.5672 -163.106 86.9922 -163.302
lowerback -3.27676 -1.43509 4.38114
upperback -0.176916 -2.06194 -0.587037
thorax 1.47886 -0.998001 -3.1504
lowerneck -1.31777 3.84407 -3.37014
upperneck 1.80393 5.17101 1.44598
head 0.644582 2.57747 1.04526
rclavicle -4.40322e-014 -2.36057e-015
rhumerus -32.9461 3.10111 -96.0796
rradius 30.0186
rwrist 39.9083
rhand 21.0807 -20.0149
rfingers 7.12502
rthumb 45.5405 -43.2983
lclavicle -4.40322e-014 -2.36057e-015
lhumerus -37.0692 10.8034 87.4437
lradius 33.0627
lwrist -18.1221
lhand 0.136872 11.2311
lfingers 7.12502
lthumb 25.7215 39.513
rfemur -11.1462 0.413849 20.2352
rtibia 28.3933
rfoot -19.2241 1.61273
rtoes -6.16888
lfemur -9.17212 -2.42218 -18.6926
ltibia 27.9631
lfoot -27.8425 9.46882
ltoes -15.7385
97
root -44.8343 16.9933 13.57 -163.039 86.9017 -163.23
lowerback -3.26148 -1.46821 4.4118
upperback -0.163236 -2.10685 -0.588626
thorax 1.47935 -1.02002 -3.17073
lowerneck -1.41904 3.89442 -3.33149
upperneck 1.93797 5.2419 1.4034
head 0.703322 2.61207 1.03097
rclavicle 2.86227e-014 7.11898e-015
rhumerus -32.9336 2.3085 -95.8291
rradius 30.178
rwrist 40.0639
rhand 20.6164 -20.4437
rfingers 7.12502
rthumb 45.1088 -43.9003
lclavicle 2.86227e-014 7.11898e-015
lhumerus -37.0875 11.5325 87.0766
lradius 32.781
lwrist -18.5134
lhand -0.685171 12.5566
lfingers 7.12502
lthumb 24.9339 40.95
rfemur -11.1136 0.295368 20.2697
rtibia 28.3577
rfoot -19.2043 1.6499
rtoes -6.11929
lfemur -9.18931 -2.4492 -18.6472
ltibia 27.9879
lfoot -27.8902 9.48783
ltoes -16.071
98
root -44.8335 16.9943 13.5728 -163.105 86.8258 -163.299
lowerback -3.22714 -1.48713 4.41207
upperback -0.17064 -2.13036 -0.582525
thorax 1.45065 -1.0326 -3.1642
lowerneck -1.42136 3.9231 -3.18534
upperneck 2.00007 5.28146 1.20777
head 0.730396 2.63054 0.947247
rclavicle -1.96393e-014 2.37299e-015
rhumerus -32.9348 1.58961 -95.5634
rradius 30.2716
rwrist 39.774
rhand 20.0517 -20.9751
rfingers 7.12502
rthumb 44.5832 -44.6369
lclavicle -1.96393e-014 2.37299e-015
lhumerus -37.1282 12.0956 86.8088
lradius 32.5471
lwrist -18.5375
lhand -0.206364 12.9373
lfingers 7.12502
lthumb 25.3927 41.2663
rfemur -11.1062 0.0041481 20.2842
rtibia 28.3317
rfoot -19.2182 1.86516
rtoes -6.02
lfemur -9.23469 -2.04091 -18.5841
ltibia 28.0034
lfoot -27.9496 9.03173
ltoes -16.2285
